<svg width="152" height="22" viewBox="0 0 152 22" fill="none" xmlns="http://www.w3.org/2000/svg">
<path fill-rule="evenodd" clip-rule="evenodd" d="M75.3966 16.6467H73.4832V2.06628H78.5585C79.8201 2.06628 80.9119 2.47695 81.8339 3.29824C82.756 4.1196 83.217 5.15474 83.217 6.40374C83.217 7.65274 82.756 8.68787 81.8339 9.50923C80.9119 10.3306 79.8201 10.7413 78.5585 10.7413H75.3966V16.6467ZM75.3966 8.94926H78.5997C79.4042 8.94926 80.0491 8.6845 80.5342 8.15508C81.0193 7.62556 81.2624 7.04178 81.2624 6.40374C81.2624 5.7657 81.0193 5.18192 80.5342 4.6525C80.0491 4.12298 79.4042 3.85832 78.5997 3.85832H75.3966V8.94926ZM84.804 7.86999C85.7883 6.85172 87.0429 6.34263 88.5686 6.34263C90.0943 6.34263 91.3488 6.84835 92.3332 7.85977C93.3175 8.87119 93.8097 10.1371 93.8097 11.6576C93.8097 13.1781 93.3175 14.444 92.3332 15.4555C91.3488 16.4669 90.0943 16.9725 88.5686 16.9725C87.0429 16.9725 85.7883 16.4669 84.804 15.4555C83.8197 14.444 83.3275 13.1781 83.3275 11.6576C83.3275 10.1371 83.8197 8.87457 84.804 7.86999ZM86.2182 14.2845C86.8842 14.9362 87.6676 15.262 88.5686 15.262C89.4695 15.262 90.25 14.9328 90.9089 14.2743C91.5668 13.6159 91.8962 12.7437 91.8962 11.6576C91.8962 10.5715 91.5668 9.6993 90.9089 9.04082C90.25 8.38244 89.4695 8.05321 88.5686 8.05321C87.6676 8.05321 86.8872 8.38244 86.2283 9.04082C85.5704 9.6993 85.2409 10.5715 85.2409 11.6576C85.2409 12.7437 85.5664 13.6193 86.2182 14.2845ZM99.5771 16.9725C98.2603 16.9725 97.1233 16.4634 96.166 15.4452C95.2098 14.4271 94.7307 13.1645 94.7307 11.6576C94.7307 10.1507 95.2098 8.88816 96.166 7.86999C97.1233 6.85172 98.2603 6.34263 99.5771 6.34263C100.353 6.34263 101.051 6.50562 101.667 6.83138C102.285 7.15725 102.746 7.56446 103.05 8.05321H103.134L103.05 6.6685V2.06628H104.965V16.6467H103.134V15.262H103.05C102.746 15.7507 102.285 16.158 101.667 16.4839C101.051 16.8096 100.353 16.9725 99.5771 16.9725ZM99.8894 15.262C100.79 15.262 101.557 14.9362 102.188 14.2845C102.818 13.6329 103.134 12.7573 103.134 11.6576C103.134 10.558 102.818 9.68234 102.188 9.0307C101.557 8.37907 100.79 8.05321 99.8894 8.05321C99.0015 8.05321 98.2392 8.38244 97.6014 9.04082C96.9636 9.6993 96.6441 10.5715 96.6441 11.6576C96.6441 12.7437 96.9636 13.6159 97.6014 14.2743C98.2392 14.9328 99.0015 15.262 99.8894 15.262ZM111.605 16.9725C110.08 16.9725 108.825 16.4669 107.84 15.4555C106.856 14.444 106.364 13.1781 106.364 11.6576C106.364 10.1371 106.856 8.87119 107.84 7.85977C108.825 6.84835 110.08 6.34263 111.605 6.34263C112.742 6.34263 113.685 6.61414 114.433 7.15725C115.183 7.70026 115.73 8.38582 116.077 9.21392L114.33 9.92666C113.803 8.67766 112.854 8.05321 111.48 8.05321C110.635 8.05321 109.889 8.39266 109.245 9.07138C108.6 9.75019 108.277 10.6122 108.277 11.6576C108.277 12.7029 108.6 13.565 109.245 14.2438C109.889 14.9226 110.635 15.262 111.48 15.262C112.909 15.262 113.893 14.6375 114.433 13.3886L116.139 14.1012C115.792 14.9158 115.235 15.598 114.465 16.1478C113.695 16.6976 112.742 16.9725 111.605 16.9725ZM120.679 16.9725C119.598 16.9725 118.693 16.6671 117.965 16.0562C117.237 15.4452 116.873 14.6375 116.873 13.6329C116.873 12.5468 117.303 11.695 118.163 11.0773C119.023 10.4596 120.083 10.1507 121.345 10.1507C122.468 10.1507 123.39 10.3543 124.111 10.7616V10.4765C124.111 9.74344 123.855 9.15629 123.342 8.71506C122.828 8.27382 122.198 8.05321 121.449 8.05321C120.894 8.05321 120.392 8.18216 119.941 8.44018C119.491 8.69809 119.182 9.05104 119.016 9.49902L117.268 8.76594C117.504 8.16857 117.969 7.61544 118.662 7.10636C119.355 6.59718 120.27 6.34263 121.407 6.34263C122.711 6.34263 123.793 6.71602 124.652 7.46268C125.512 8.20934 125.942 9.26144 125.942 10.6191V16.6467H124.111V15.262H124.028C123.265 16.4024 122.149 16.9725 120.679 16.9725ZM120.991 15.262C121.782 15.262 122.499 14.9735 123.144 14.3965C123.789 13.8196 124.111 13.1374 124.111 12.35C123.571 11.9156 122.759 11.6983 121.677 11.6983C120.748 11.6983 120.048 11.8951 119.577 12.2889C119.106 12.6826 118.87 13.1441 118.87 13.6736C118.87 14.1623 119.085 14.5493 119.515 14.8344C119.945 15.1195 120.437 15.262 120.991 15.262ZM131.543 16.9725C130.406 16.9725 129.466 16.701 128.724 16.158C127.982 15.615 127.438 14.9362 127.091 14.1216L128.797 13.4292C129.338 14.6782 130.26 15.3027 131.563 15.3027C132.16 15.3027 132.649 15.1737 133.029 14.9158C133.411 14.6579 133.602 14.3185 133.602 13.8977C133.602 13.2459 133.137 12.8048 132.208 12.574L130.149 12.0852C129.497 11.9223 128.88 11.6135 128.298 11.1587C127.716 10.7039 127.425 10.0896 127.425 9.3158C127.425 8.43333 127.822 7.71722 128.62 7.16737C129.417 6.61761 130.364 6.34263 131.459 6.34263C132.36 6.34263 133.165 6.54291 133.872 6.94338C134.579 7.34394 135.085 7.9175 135.391 8.66417L133.726 9.33613C133.352 8.45367 132.575 8.01253 131.397 8.01253C130.829 8.01253 130.35 8.1279 129.962 8.35864C129.573 8.58947 129.379 8.90175 129.379 9.29536C129.379 9.86555 129.83 10.2525 130.731 10.4562L132.749 10.9245C133.705 11.1417 134.412 11.515 134.87 12.0445C135.328 12.574 135.556 13.1713 135.556 13.8366C135.556 14.7325 135.183 15.4792 134.434 16.0765C133.685 16.6739 132.721 16.9725 131.543 16.9725ZM141.283 16.8096C140.215 16.8096 139.4 16.5314 138.839 15.9748C138.276 15.4181 137.996 14.6307 137.996 13.6126V8.37907H136.207V6.6685H137.996V3.61389H139.91V6.6685H142.406V8.37907H139.91V13.47C139.91 14.556 140.368 15.099 141.283 15.099C141.629 15.099 141.921 15.0448 142.156 14.9362L142.821 16.5449C142.406 16.7214 141.892 16.8096 141.283 16.8096ZM147.985 16.9725C146.848 16.9725 145.909 16.701 145.168 16.158C144.426 15.615 143.881 14.9362 143.535 14.1216L145.24 13.4292C145.781 14.6782 146.703 15.3027 148.006 15.3027C148.603 15.3027 149.091 15.1737 149.473 14.9158C149.854 14.6579 150.044 14.3185 150.044 13.8977C150.044 13.2459 149.58 12.8048 148.651 12.574L146.592 12.0852C145.94 11.9223 145.324 11.6135 144.741 11.1587C144.158 10.7039 143.867 10.0896 143.867 9.3158C143.867 8.43333 144.266 7.71722 145.063 7.16737C145.861 6.61761 146.807 6.34263 147.903 6.34263C148.804 6.34263 149.608 6.54291 150.315 6.94338C151.023 7.34394 151.529 7.9175 151.833 8.66417L150.17 9.33613C149.795 8.45367 149.019 8.01253 147.84 8.01253C147.271 8.01253 146.793 8.1279 146.405 8.35864C146.017 8.58947 145.823 8.90175 145.823 9.29536C145.823 9.86555 146.273 10.2525 147.175 10.4562L149.192 10.9245C150.149 11.1417 150.856 11.515 151.314 12.0445C151.771 12.574 152 13.1713 152 13.8366C152 14.7325 151.625 15.4792 150.877 16.0765C150.128 16.6739 149.164 16.9725 147.985 16.9725Z" fill="#14142B"/>
<path d="M0.814087 8.61363C0.814087 4.00003 4.76277 0.261353 9.47502 0.261353C12.075 0.261353 13.9274 1.26363 15.3249 2.56818L13.6674 4.17501C12.6762 3.25227 11.3275 2.53637 9.47502 2.53637C6.04643 2.53637 3.36532 5.24089 3.36532 8.59776C3.36532 11.9546 6.04643 14.6592 9.47502 14.6592C11.7012 14.6592 12.9687 13.7841 13.7812 12.9887C14.4474 12.3364 14.8862 11.3978 15.0486 10.125H9.47502V7.85H17.3235C17.4047 8.26366 17.4536 8.7409 17.4536 9.28183C17.4536 11 16.9823 13.1159 15.4386 14.6114C13.9274 16.1387 12.01 16.95 9.47502 16.95C4.76277 16.95 0.814087 13.2115 0.814087 8.61363ZM23.7095 6.30688C26.7482 6.30688 29.2181 8.56591 29.2181 11.6841C29.2181 14.7864 26.7482 17.0614 23.7095 17.0614C20.6709 17.0614 18.201 14.7864 18.201 11.6841C18.201 8.56591 20.6709 6.30688 23.7095 6.30688ZM23.7095 14.9296C25.367 14.9296 26.8132 13.5933 26.8132 11.6682C26.8132 9.72732 25.367 8.4069 23.7095 8.4069C22.0358 8.4069 20.6059 9.72732 20.6059 11.6682C20.6059 13.5933 22.0521 14.9296 23.7095 14.9296ZM35.7342 6.30688C38.7727 6.30688 41.2427 8.56591 41.2427 11.6841C41.2427 14.7864 38.7727 17.0614 35.7342 17.0614C32.6955 17.0614 30.2256 14.7864 30.2256 11.6841C30.2256 8.56591 32.6955 6.30688 35.7342 6.30688ZM35.7342 14.9296C37.3916 14.9296 38.8377 13.5933 38.8377 11.6682C38.8377 9.72732 37.4078 8.4069 35.7342 8.4069C34.0604 8.4069 32.6305 9.72732 32.6305 11.6682C32.6305 13.5933 34.0767 14.9296 35.7342 14.9296ZM50.4886 6.48186H52.7961V16.1387C52.7961 20.116 50.4074 21.7387 47.5799 21.7387C44.9151 21.7387 43.3063 19.9888 42.7052 18.5569L44.8013 17.6978C45.175 18.5728 46.085 19.607 47.5636 19.607C49.3674 19.607 50.4886 18.5092 50.4886 16.4569V15.6773H50.4074C49.8711 16.3296 48.8311 16.9023 47.5149 16.9023C44.7688 16.9023 42.2501 14.5478 42.2501 11.541C42.2501 8.50233 44.7688 6.14776 47.5149 6.14776C48.8311 6.14776 49.8711 6.72043 50.4074 7.35689H50.4886V6.48186ZM47.7262 14.7864C49.3674 14.7864 50.6673 13.4342 50.651 11.541C50.651 9.64777 49.3674 8.26366 47.7262 8.26366C46.0688 8.26366 44.6713 9.64777 44.6713 11.541C44.6713 13.4183 46.0688 14.7864 47.7262 14.7864ZM54.4373 16.6955V0.897718H56.8419V16.6955H54.4373ZM63.456 14.9296C64.6905 14.9296 65.5352 14.3409 66.169 13.45L68.0382 14.675C67.4205 15.55 65.9741 17.0614 63.456 17.0614C60.3353 17.0614 58.0121 14.691 58.0121 11.6841C58.0121 8.48636 60.3684 6.30688 63.1959 6.30688C66.0394 6.30688 67.4366 8.5182 67.8916 9.72732L68.1356 10.3318L60.7903 13.3069C61.3598 14.3728 62.2206 14.9296 63.456 14.9296ZM63.2772 8.37506C62.0418 8.37506 60.3353 9.44094 60.4006 11.5091L65.3082 9.5205C65.048 8.83643 64.2355 8.37506 63.2772 8.37506Z" fill="#14142B"/>
</svg>
